<svg width="107" height="88" viewBox="0 0 107 88" fill="none" xmlns="http://www.w3.org/2000/svg">
<g clip-path="url(#clip0_32_202)">
<path d="M80.1579 0H67.5418V16.6265C62.2965 12.792 55.9692 10.7286 49.4755 10.7349C45.3713 10.7277 41.3078 11.5501 37.5285 13.153C33.8828 14.6953 30.5706 16.9317 27.7757 19.7381C24.9728 22.5369 22.739 25.8541 21.1981 29.5055C19.5979 33.291 18.7768 37.3609 18.7839 41.4717C18.7768 45.5825 19.5979 49.6524 21.1981 53.4379C22.738 57.0892 24.9704 60.4066 27.7717 63.2063C30.5669 66.0121 33.879 68.2481 37.5244 69.7904C41.3038 71.3933 45.3672 72.2157 49.4714 72.2085C53.5756 72.2157 57.639 71.3932 61.4184 69.7904C65.0637 68.2483 68.3755 66.0123 71.1702 63.2063C73.9721 60.407 76.2049 57.0895 77.7447 53.4379C79.3449 49.6524 80.166 45.5825 80.1589 41.4717V36.0128H67.5428V41.4717C67.5428 51.4525 59.4361 59.5671 49.4765 59.5671C39.5168 59.5671 31.4102 51.4474 31.4102 41.4717C31.4102 31.496 39.5168 23.3764 49.4815 23.3764H80.164L80.1579 0Z" fill="white"/>
<path d="M101.971 23.3723H80.1579V36.0087H101.971V23.3723Z" fill="#ED1C24"/>
<path d="M80.1579 0H67.5417V23.3723H80.1579V0Z" fill="#ED1C24"/>
<path d="M5.54404 85.8842H4.22389V84.6185C3.86054 85.5499 3.24554 86.0153 2.3789 86.0146C1.61117 86.0146 1.02275 85.6941 0.613651 85.0532C0.204551 84.4123 0 83.616 0 82.6644C0 81.7802 0.212625 81.0089 0.637873 80.3505C0.825521 80.0388 1.09286 79.7831 1.41225 79.6096C1.73164 79.4362 2.09149 79.3513 2.4546 79.3638C3.26203 79.3638 3.82151 79.7321 4.13305 80.4687V77.4158H5.54606L5.54404 85.8842ZM4.13103 82.1873C4.13103 81.6818 4.01093 81.2825 3.7687 80.9984C3.65495 80.8601 3.51119 80.7496 3.34835 80.6753C3.18552 80.601 3.00791 80.5649 2.82905 80.5698C2.63219 80.5657 2.43777 80.614 2.26574 80.71C2.0937 80.8059 1.95023 80.9459 1.85003 81.1157C1.61453 81.4796 1.49678 82.0235 1.49678 82.7473C1.49678 84.1451 1.93414 84.844 2.80886 84.844C2.98589 84.8415 3.1602 84.7999 3.31933 84.7221C3.47845 84.6444 3.61845 84.5324 3.72933 84.3941C4.00213 84.0746 4.14451 83.6638 4.128 83.2437L4.13103 82.1873Z" fill="white"/>
<path d="M9.68111 86.0145C8.75592 86.0145 8.04942 85.6816 7.5616 85.0158C7.07514 84.3528 6.81852 83.5487 6.83087 82.726C6.83087 81.8 7.10001 81.0287 7.6383 80.4121C8.17659 79.7954 8.8878 79.4874 9.77194 79.4881C10.1611 79.4773 10.5479 79.5522 10.9049 79.7077C11.2619 79.8632 11.5804 80.0954 11.838 80.3878C12.3763 80.9876 12.6454 81.767 12.6454 82.726C12.6454 83.7147 12.3655 84.51 11.8057 85.1118C11.2458 85.7136 10.5377 86.0145 9.68111 86.0145ZM9.73056 84.848C10.68 84.848 11.155 84.1386 11.1557 82.72C11.1557 82.0791 11.042 81.5736 10.8145 81.2036C10.5871 80.8336 10.2382 80.6486 9.7679 80.6486C9.28008 80.6486 8.91876 80.8397 8.68393 81.2218C8.4491 81.6039 8.33135 82.1117 8.33068 82.7452C8.33068 83.4279 8.45549 83.9489 8.70512 84.3081C8.81555 84.4785 8.96785 84.6177 9.14742 84.7122C9.32698 84.8068 9.52778 84.8535 9.73056 84.848Z" fill="white"/>
<path d="M17.5536 83.5822L18.7647 83.7066C18.6073 84.4931 18.3045 85.0743 17.8564 85.4504C17.3991 85.8291 16.8205 86.0294 16.2274 86.0145C15.3641 86.0145 14.7003 85.6991 14.2361 85.0683C13.7718 84.4375 13.5393 83.6651 13.5386 82.7513C13.5386 81.8077 13.7926 81.028 14.3007 80.412C14.8087 79.796 15.4859 79.488 16.3324 79.488C17.6949 79.488 18.5064 80.2078 18.7668 81.6473L17.5556 81.8141C17.4486 81.0364 17.0668 80.6479 16.4101 80.6486C16.1931 80.6372 15.9776 80.6909 15.7913 80.803C15.6051 80.915 15.4564 81.0802 15.3644 81.2773C15.1352 81.7512 15.0233 82.2734 15.0384 82.7998C15.0384 83.4326 15.1511 83.9206 15.3766 84.2636C15.4745 84.4255 15.6135 84.5585 15.7794 84.6491C15.9454 84.7397 16.1323 84.7845 16.3213 84.7791C16.9403 84.7798 17.3511 84.3809 17.5536 83.5822Z" fill="white"/>
<path d="M22.7504 84.7802V85.8841C22.4294 85.9619 22.1015 86.0076 21.7714 86.0206C21.4314 86.0303 21.0946 85.9523 20.7934 85.7941C20.5334 85.6563 20.3238 85.4393 20.1949 85.1744C20.0698 84.9116 20.0068 84.5072 20.0062 83.9613V80.7163H19.226V79.6185H20.0879L20.2181 77.9868L21.3758 77.8857V79.6225H22.6334V80.7203H21.3758V83.7794C21.3758 84.1716 21.4471 84.4392 21.5897 84.582C21.7321 84.7256 22.0015 84.7964 22.3972 84.7964C22.5102 84.7923 22.6263 84.7883 22.7504 84.7802Z" fill="white"/>
<path d="M26.1568 86.0145C25.2323 86.0145 24.5258 85.6816 24.0373 85.0158C23.5512 84.3526 23.2946 83.5486 23.3065 82.726C23.3065 81.8 23.5757 81.0287 24.114 80.4121C24.6523 79.7954 25.3635 79.4874 26.2476 79.4881C26.6368 79.4773 27.0236 79.5522 27.3806 79.7077C27.7376 79.8632 28.0561 80.0954 28.3136 80.3878C28.8519 80.9876 29.1211 81.767 29.1211 82.726C29.1211 83.7147 28.8412 84.51 28.2813 85.1118C27.7215 85.7136 27.0133 86.0145 26.1568 86.0145ZM26.2062 84.848C27.1556 84.848 27.6307 84.1386 27.6314 82.72C27.6314 82.0791 27.5176 81.5736 27.2902 81.2036C27.0628 80.8336 26.7139 80.6486 26.2436 80.6486C25.7558 80.6486 25.3944 80.8397 25.1596 81.2218C24.9248 81.6039 24.807 82.1117 24.8064 82.7452C24.8064 83.4279 24.9315 83.9489 25.1818 84.3081C25.2921 84.4785 25.4442 84.6176 25.6236 84.7121C25.803 84.8066 26.0036 84.8534 26.2062 84.848Z" fill="white"/>
<path d="M31.831 85.8841H30.418V79.6165H31.6948V81.1116C31.8765 80.5287 32.1261 80.1027 32.4437 79.8338C32.7613 79.5649 33.0876 79.4301 33.4227 79.4294C33.4681 79.4294 33.5297 79.4294 33.6084 79.4355V80.9519C32.8898 80.9519 32.4137 81.1814 32.1803 81.6403C31.9597 82.0507 31.84 82.5078 31.831 82.9737V85.8841Z" fill="white"/>
<path d="M36.9966 86.0145C36.0714 86.0145 35.3649 85.6816 34.8771 85.0158C34.3906 84.3528 34.134 83.5487 34.1463 82.726C34.1463 81.8 34.4155 81.0287 34.9538 80.412C35.4921 79.7954 36.2033 79.4874 37.0874 79.4881C37.4764 79.4773 37.863 79.5523 38.2199 79.7077C38.5767 79.8632 38.8951 80.0954 39.1524 80.3878C39.6907 80.9876 39.9598 81.767 39.9598 82.726C39.9598 83.7147 39.6803 84.51 39.1211 85.1118C38.852 85.4057 38.5232 85.6383 38.1567 85.7941C37.7901 85.9498 37.3946 86.025 36.9966 86.0145ZM37.046 84.8479C37.9954 84.8479 38.4701 84.1386 38.4701 82.72C38.4701 82.0791 38.3568 81.5736 38.13 81.2036C37.9032 80.8336 37.5544 80.6486 37.0834 80.6486C36.5955 80.6486 36.2342 80.8397 35.9994 81.2218C35.7646 81.6039 35.6468 82.1117 35.6461 82.7452C35.6461 83.4279 35.7709 83.9489 36.0206 84.3081C36.1308 84.4783 36.2828 84.6172 36.462 84.7117C36.6412 84.8062 36.8416 84.8531 37.044 84.8479H37.046Z" fill="white"/>
<path d="M46.4355 85.8842H45.0225V81.97C45.0225 81.5569 44.9276 81.2455 44.7379 81.0359C44.6529 80.9368 44.5474 80.8575 44.4287 80.8033C44.31 80.7492 44.1809 80.7216 44.0505 80.7225C43.6831 80.7225 43.3608 80.8839 43.0836 81.2067C42.8064 81.5296 42.6681 82.0155 42.6688 82.6645V85.8842H41.2558V79.6166H42.5437V81.0753C42.9938 80.0213 43.6256 79.4939 44.4391 79.4933C44.9592 79.4809 45.4645 79.6674 45.8521 80.0149C46.243 80.3613 46.4382 80.9712 46.4375 81.8446L46.4355 85.8842Z" fill="white"/>
<path d="M53.3047 87.9999H51.8372V84.7802C51.5008 85.603 50.9204 86.0145 50.0962 86.0145C49.3042 86.0145 48.7108 85.69 48.3158 85.041C47.9119 84.3561 47.707 83.5718 47.7243 82.7765C47.7243 81.8081 47.9555 81.0179 48.4177 80.4059C48.88 79.794 49.5192 79.488 50.3354 79.488C51.0997 79.488 51.7107 79.823 52.1683 80.4929L52.5467 79.6184H53.3017L53.3047 87.9999ZM51.8372 82.2054C51.8447 81.8244 51.7472 81.4488 51.5556 81.1196C51.3669 80.8052 51.0611 80.6486 50.6351 80.6486C50.4251 80.6404 50.2167 80.6887 50.0316 80.7884C49.8465 80.8882 49.6914 81.0357 49.5824 81.2157C49.3389 81.5951 49.2171 82.111 49.2171 82.7634C49.2171 83.434 49.3419 83.9552 49.5915 84.3273C49.8412 84.6993 50.1581 84.8853 50.5423 84.8853C50.8935 84.8853 51.1963 84.7273 51.4506 84.4112C51.705 84.0951 51.8332 83.6617 51.8352 83.1111L51.8372 82.2054Z" fill="white"/>
<path d="M60.1427 85.8843H58.8306V84.5317C58.4767 85.5203 57.8183 86.0147 56.8554 86.0147C56.2855 86.0147 55.8333 85.8378 55.4989 85.484C55.1645 85.1302 54.9963 84.6372 54.9943 84.005V79.6187H56.4375V83.7037C56.4375 84.1546 56.5365 84.4505 56.7343 84.5913C56.9016 84.7208 57.1053 84.7943 57.3166 84.8016C57.6221 84.8016 57.934 84.6641 58.2523 84.3891C58.5705 84.1142 58.7293 83.5278 58.7286 82.6301V79.6217H60.1416L60.1427 85.8843Z" fill="white"/>
<path d="M65.8169 83.8865L67.0926 84.0604C66.9317 84.6207 66.5925 85.113 66.1267 85.4625C65.6477 85.8305 65.0468 86.0145 64.3241 86.0145C63.4575 86.0145 62.7597 85.723 62.2309 85.1401C61.702 84.5571 61.4376 83.7669 61.4376 82.7695C61.4376 81.826 61.704 81.0425 62.2369 80.4191C62.7698 79.7957 63.4925 79.4854 64.4049 79.4881C65.2964 79.4881 65.9858 79.794 66.4729 80.4059C66.9601 81.0179 67.2036 81.8037 67.2036 82.7634L67.1976 82.9252H62.9051C62.8948 83.2703 62.9356 83.615 63.0262 83.9482C63.1141 84.2156 63.2818 84.4495 63.5066 84.6184C63.7639 84.8152 64.0814 84.9164 64.4049 84.9045C65.1026 84.9045 65.5733 84.5652 65.8169 83.8865ZM65.7301 82.0133C65.7429 81.6066 65.5982 81.2107 65.3264 80.9084C65.2017 80.7705 65.0491 80.661 64.8786 80.5872C64.7082 80.5135 64.5239 80.4772 64.3383 80.4808C64.1571 80.4767 63.977 80.5105 63.8096 80.5801C63.6423 80.6498 63.4913 80.7537 63.3663 80.8851C63.1059 81.1547 62.9528 81.5321 62.9071 82.0174L65.7301 82.0133Z" fill="white"/>
<path d="M73.6399 85.8843H72.3278V84.5317C71.9719 85.5203 71.3128 86.0147 70.3506 86.0147C69.78 86.0147 69.3279 85.8378 68.9941 85.484C68.6604 85.1302 68.4922 84.6372 68.4895 84.005V79.6187H69.9328V83.7037C69.9328 84.1546 70.0317 84.4505 70.2295 84.5913C70.3969 84.7208 70.6006 84.7943 70.8119 84.8016C71.118 84.8016 71.4299 84.6641 71.7475 84.3891C72.0651 84.1142 72.2242 83.5278 72.2249 82.6301V79.6217H73.6379L73.6399 85.8843Z" fill="white"/>
<path d="M79.3131 83.8865L80.5889 84.0604C80.4287 84.6211 80.0894 85.1136 79.623 85.4625C79.1439 85.8305 78.543 86.0145 77.8204 86.0145C76.9537 86.0145 76.256 85.723 75.7271 85.1401C75.1982 84.5571 74.9338 83.7669 74.9338 82.7695C74.9338 81.826 75.2003 81.0425 75.7332 80.4191C76.2661 79.7957 76.9887 79.4854 77.9011 79.4881C78.7933 79.4881 79.483 79.794 79.9702 80.4059C80.4573 81.0179 80.7009 81.8037 80.7009 82.7634L80.6948 82.9252H76.4064C76.3964 83.2702 76.4368 83.6149 76.5265 83.9482C76.6147 84.2154 76.7823 84.4492 77.0069 84.6184C77.2641 84.8152 77.5817 84.9164 77.9052 84.9045C78.6002 84.9045 79.0695 84.5652 79.3131 83.8865ZM79.2263 82.0133C79.2391 81.6066 79.0945 81.2107 78.8226 80.9084C78.6969 80.7756 78.546 80.6693 78.3786 80.5959C78.2113 80.5224 78.031 80.4833 77.8483 80.4807C77.6657 80.4782 77.4843 80.5123 77.315 80.5811C77.1457 80.6498 76.9919 80.7518 76.8626 80.8811C76.6022 81.1507 76.4494 81.5281 76.4043 82.0133H79.2263Z" fill="white"/>
<path d="M83.432 84.2585V85.8841H81.9019V84.2585H83.432Z" fill="white"/>
<path d="M88.6541 83.5822L89.8653 83.7066C89.7085 84.4931 89.4057 85.0743 88.9569 85.4504C88.4996 85.8291 87.9211 86.0294 87.3279 86.0145C86.4646 86.0145 85.8009 85.6991 85.3366 85.0683C84.8723 84.4375 84.6402 83.6651 84.6402 82.7513C84.6402 81.8077 84.8942 81.028 85.4022 80.412C85.9102 79.796 86.5874 79.488 87.4339 79.488C88.7964 79.488 89.6076 80.2078 89.8673 81.6473L88.6561 81.8141C88.5478 81.0364 88.1656 80.6479 87.5096 80.6486C87.2929 80.6379 87.0779 80.6922 86.892 80.8043C86.7062 80.9165 86.5579 81.0815 86.466 81.2784C86.2371 81.7523 86.1256 82.2745 86.141 82.8008C86.141 83.4336 86.2537 83.9216 86.4791 84.2646C86.5767 84.4266 86.7155 84.5597 86.8813 84.6503C87.0471 84.7409 87.234 84.7857 87.4228 84.7802C88.0411 84.7802 88.4516 84.3809 88.6541 83.5822Z" fill="white"/>
<path d="M93.3988 86.0145C92.4736 86.0145 91.7671 85.6816 91.2793 85.0157C90.7928 84.3528 90.5362 83.5487 90.5486 82.726C90.5486 81.8 90.8177 81.0287 91.356 80.412C91.8943 79.7954 92.6058 79.4874 93.4906 79.4881C93.8796 79.4773 94.2662 79.5524 94.6231 79.7078C94.9799 79.8633 95.2983 80.0954 95.5556 80.3878C96.0939 80.9876 96.3631 81.767 96.3631 82.726C96.3631 83.7147 96.0835 84.5099 95.5244 85.1118C95.2551 85.4057 94.9261 85.6385 94.5594 85.7942C94.1927 85.9499 93.7969 86.0251 93.3988 86.0145ZM93.4482 84.8479C94.3977 84.8479 94.8724 84.1386 94.8724 82.72C94.8724 82.079 94.759 81.5736 94.5322 81.2036C94.3055 80.8336 93.9563 80.6486 93.4846 80.6486C92.9981 80.6486 92.6368 80.8397 92.4006 81.2218C92.1644 81.6039 92.0477 82.1117 92.0504 82.7452C92.0504 83.4279 92.1752 83.9489 92.4248 84.3081C92.535 84.4783 92.687 84.6173 92.8662 84.7118C93.0454 84.8064 93.2458 84.8532 93.4482 84.8479Z" fill="white"/>
<path d="M107 85.8841H105.519V81.985C105.519 81.1762 105.16 80.7719 104.442 80.7719C104.251 80.7651 104.061 80.8031 103.888 80.8828C103.714 80.9624 103.561 81.0816 103.441 81.2308C103.192 81.5375 103.067 81.9947 103.067 82.6026V85.8901H101.568V81.985C101.568 81.1621 101.232 80.7506 100.559 80.7506C100.36 80.7491 100.164 80.793 99.9855 80.879C99.8067 80.965 99.6499 81.0909 99.5272 81.247C99.2486 81.5772 99.1094 82.0281 99.1094 82.5996V85.8871H97.654V79.6194H99.0226V80.9528C99.4687 79.9776 100.164 79.4897 101.11 79.489C102.03 79.489 102.629 79.9769 102.906 80.9528C103.41 79.9776 104.106 79.4897 104.994 79.489C105.599 79.489 106.084 79.6774 106.449 80.0541C106.63 80.2384 106.773 80.4576 106.867 80.6983C106.962 80.9391 107.007 81.1966 107 81.4552V85.8841Z" fill="white"/>
</g>
<defs>
<clipPath id="clip0_32_202">
<rect width="107" height="88" fill="white"/>
</clipPath>
</defs>
</svg>
