<svg width="34" height="34" viewBox="0 0 34 34" fill="none" xmlns="http://www.w3.org/2000/svg">
<path fill-rule="evenodd" clip-rule="evenodd" d="M4.25 10.0938C4.25 9.21355 4.96355 8.5 5.84375 8.5H28.1562C29.0365 8.5 29.75 9.21355 29.75 10.0938C29.75 10.974 29.0365 11.6875 28.1562 11.6875H5.84375C4.96355 11.6875 4.25 10.974 4.25 10.0938Z" fill="white"/>
<path fill-rule="evenodd" clip-rule="evenodd" d="M4.25 17C4.25 16.1198 4.96355 15.4062 5.84375 15.4062H28.1562C29.0365 15.4062 29.75 16.1198 29.75 17C29.75 17.8802 29.0365 18.5938 28.1562 18.5938H5.84375C4.96355 18.5938 4.25 17.8802 4.25 17Z" fill="white"/>
<path fill-rule="evenodd" clip-rule="evenodd" d="M4.25 23.9062C4.25 23.026 4.96355 22.3125 5.84375 22.3125H28.1562C29.0365 22.3125 29.75 23.026 29.75 23.9062C29.75 24.7865 29.0365 25.5 28.1562 25.5H5.84375C4.96355 25.5 4.25 24.7865 4.25 23.9062Z" fill="white"/>
</svg>
