<svg width="34" height="34" viewBox="0 0 34 34" fill="none" xmlns="http://www.w3.org/2000/svg">
<path d="M22.6822 27.6208L12.3292 17L22.6823 6.37926C22.8676 6.1895 22.9714 5.93477 22.9714 5.66951C22.9714 5.40425 22.8676 5.14952 22.6823 4.95976C22.5922 4.86788 22.4848 4.79489 22.3662 4.74505C22.2476 4.69522 22.1203 4.66956 21.9916 4.66956C21.863 4.66956 21.7357 4.69522 21.6171 4.74505C21.4985 4.79489 21.391 4.86788 21.301 4.95976L10.285 16.2584C10.0916 16.4568 9.98335 16.7229 9.98335 17C9.98335 17.2771 10.0916 17.5432 10.285 17.7416L21.2989 29.0403C21.389 29.1328 21.4967 29.2063 21.6157 29.2565C21.7346 29.3068 21.8625 29.3326 21.9916 29.3326C22.1208 29.3326 22.2486 29.3068 22.3676 29.2565C22.4866 29.2063 22.5943 29.1328 22.6844 29.0403C22.8697 28.8505 22.9735 28.5958 22.9735 28.3305C22.9735 28.0653 22.8697 27.8105 22.6844 27.6208L22.6822 27.6208Z" fill="black"/>
</svg>
