<svg width="27" height="27" viewBox="0 0 27 27" fill="none" xmlns="http://www.w3.org/2000/svg">
<rect x="1.05762" y="1.14441" width="24" height="24" rx="9" stroke="#5B5B5B" stroke-width="2"/>
<path fill-rule="evenodd" clip-rule="evenodd" d="M16.5048 17.7064H9.61033C7.20634 17.7064 5.25752 19.6552 5.25752 22.0591C5.25752 22.6577 5.64361 23.0584 6.08349 23.1312C7.74313 23.4063 10.2097 23.7064 13.0575 23.7064C15.9052 23.7064 18.372 23.4063 20.0316 23.1312C20.4715 23.0584 20.8575 22.6577 20.8575 22.0591C20.8575 19.6552 18.9087 17.7064 16.5048 17.7064ZM9.61033 15.9064C6.21223 15.9064 3.45752 18.6611 3.45752 22.0591C3.45752 23.4609 4.40643 24.6779 5.78929 24.907C7.52 25.1938 10.0878 25.5064 13.0575 25.5064C16.0273 25.5064 18.595 25.1938 20.3258 24.907C21.7086 24.6779 22.6575 23.4609 22.6575 22.0591C22.6575 18.6611 19.9028 15.9064 16.5048 15.9064H9.61033Z" fill="#5B5B5B"/>
<path fill-rule="evenodd" clip-rule="evenodd" d="M9.90524 10.2712C9.90524 12.0123 11.3166 13.4237 13.0577 13.4237C14.7987 13.4237 16.2101 12.0123 16.2101 10.2712C16.2101 8.5302 14.7987 7.1188 13.0577 7.1188C11.3166 7.1188 9.90524 8.5302 9.90524 10.2712ZM13.0577 5.76776C10.5705 5.76776 8.5542 7.78404 8.5542 10.2712C8.5542 12.7584 10.5705 14.7747 13.0577 14.7747C15.5449 14.7747 17.5612 12.7584 17.5612 10.2712C17.5612 7.78404 15.5449 5.76776 13.0577 5.76776Z" fill="#5B5B5B"/>
</svg>
