<svg width="27" height="27" viewBox="0 0 27 27" fill="none" xmlns="http://www.w3.org/2000/svg">
<path fill-rule="evenodd" clip-rule="evenodd" d="M5.18726 4.69568C3.66225 6.22069 2.94868 8.82068 2.94868 13.349C2.94868 17.8773 3.66225 20.4773 5.18726 22.0023C6.71227 23.5273 9.31226 24.2409 13.8406 24.2409C18.3689 24.2409 20.9689 23.5273 22.4939 22.0023C24.0189 20.4773 24.7325 17.8773 24.7325 13.349C24.7325 8.82068 24.0189 6.22069 22.4939 4.69568C20.9689 3.17067 18.3689 2.45711 13.8406 2.45711C9.31226 2.45711 6.71227 3.17067 5.18726 4.69568ZM3.6966 3.20502C5.86078 1.04084 9.23376 0.348999 13.8406 0.348999C18.4474 0.348999 21.8204 1.04084 23.9846 3.20502C26.1487 5.3692 26.8406 8.74218 26.8406 13.349C26.8406 17.9558 26.1487 21.3288 23.9846 23.493C21.8204 25.6572 18.4474 26.349 13.8406 26.349C9.23376 26.349 5.86078 25.6572 3.6966 23.493C1.53242 21.3288 0.840576 17.9558 0.840576 13.349C0.840576 8.74218 1.53242 5.3692 3.6966 3.20502ZM7.1649 7.72738C7.1649 7.14524 7.63682 6.67332 8.21895 6.67332H19.4622C20.0443 6.67332 20.5163 7.14524 20.5163 7.72738C20.5163 8.30952 20.0443 8.78143 19.4622 8.78143H8.21895C7.63682 8.78143 7.1649 8.30952 7.1649 7.72738ZM7.1649 13.349C7.1649 12.7669 7.63682 12.2949 8.21895 12.2949H19.4622C20.0443 12.2949 20.5163 12.7669 20.5163 13.349C20.5163 13.9311 20.0443 14.4031 19.4622 14.4031H8.21895C7.63682 14.4031 7.1649 13.9311 7.1649 13.349ZM12.7865 18.9706C12.7865 18.3885 13.2584 17.9166 13.8406 17.9166H19.4622C20.0443 17.9166 20.5163 18.3885 20.5163 18.9706C20.5163 19.5528 20.0443 20.0247 19.4622 20.0247H13.8406C13.2584 20.0247 12.7865 19.5528 12.7865 18.9706Z" fill="#5B5B5B"/>
</svg>
