<svg width="26" height="27" viewBox="0 0 26 27" fill="none" xmlns="http://www.w3.org/2000/svg">
<path d="M3.94703 17.2429C2.40475 17.2429 1.43267 16.1162 1.38784 16.0631C1.3466 16.0144 1.31542 15.958 1.2961 15.8972C1.27678 15.8364 1.26971 15.7724 1.27529 15.7088C1.28086 15.6453 1.29898 15.5834 1.3286 15.5269C1.35821 15.4704 1.39873 15.4203 1.44782 15.3795C1.65389 15.2077 1.96091 15.2337 2.1348 15.4374C2.17169 15.4803 3.02687 16.4511 4.30946 16.2428C5.04872 16.1228 6.02446 14.6743 6.67015 13.7157C6.92978 13.3303 7.15399 12.9974 7.35512 12.7473C8.37954 11.473 9.42552 11.3222 10.1234 11.4204C11.5977 11.6277 12.8326 13.0998 13.4025 14.467C13.8577 15.5592 14.5655 16.1927 15.3952 16.2508C16.3363 16.3156 17.3215 15.6471 18.0279 14.4591C18.1029 14.3331 18.1844 14.1845 18.2709 14.0273C18.85 12.973 19.7253 11.3797 21.4315 11.3797C23.3338 11.3797 24.6048 13.4737 24.658 13.5629C24.7956 13.7934 24.7189 14.0911 24.4867 14.2277C24.2546 14.3643 23.9548 14.2881 23.8173 14.0576C23.815 14.0538 23.5429 13.6048 23.093 13.1678C22.709 12.7948 22.1092 12.3502 21.4315 12.3502C20.3054 12.3502 19.6529 13.5378 19.1287 14.4921C19.0383 14.6568 18.9528 14.8123 18.8694 14.9525C17.9705 16.4642 16.6462 17.3122 15.3264 17.2189C14.1079 17.1335 13.1039 16.288 12.4996 14.8382C11.888 13.3711 10.7724 12.4918 9.98638 12.3812C9.33897 12.29 8.7102 12.617 8.1188 13.3527C7.9434 13.5709 7.71943 13.9034 7.48234 14.2553C6.65482 15.4838 5.62496 17.0126 4.46703 17.2006C4.29512 17.2286 4.12122 17.2428 3.94703 17.2429Z" fill="#5B5B5B"/>
<rect x="1" y="1.34894" width="24" height="24" rx="9" stroke="#5B5B5B" stroke-width="2"/>
</svg>
