<svg width="27" height="27" viewBox="0 0 27 27" fill="none" xmlns="http://www.w3.org/2000/svg">
<rect x="1" y="1" width="25" height="25" rx="9" stroke="#5B5B5B" stroke-width="2"/>
<path fill-rule="evenodd" clip-rule="evenodd" d="M17.1762 5.98692C17.402 5.76574 17.7681 5.76574 17.9938 5.98692L21.0774 9.00756C21.3032 9.22874 21.3032 9.58735 21.0774 9.80853L17.9938 12.8292C17.7681 13.0504 17.402 13.0504 17.1762 12.8292C16.9504 12.608 16.9504 12.2494 17.1762 12.0282L17.5383 11.6735L15.2723 9.45385L10.6704 13.9619C10.4446 14.1831 10.0785 14.1831 9.8527 13.9619C9.62691 13.7407 9.62691 13.3821 9.8527 13.1609L17.1762 5.98692ZM16.09 8.65289L18.3559 10.8726L19.8509 9.40805L17.585 7.18837L16.09 8.65289ZM15.6812 14.2937C15.907 14.5149 15.907 14.8735 15.6812 15.0947L11.0558 19.6256C10.9474 19.7318 10.8003 19.7915 10.647 19.7915H7.56341C7.24409 19.7915 6.98524 19.5379 6.98524 19.2251V16.2045C6.98524 16.0543 7.04615 15.9102 7.15458 15.804L7.92547 15.0488C8.15126 14.8277 8.51734 14.8277 8.74313 15.0488C8.96892 15.27 8.96892 15.6286 8.74313 15.8498L8.14158 16.4391V18.6588H10.4075L14.8635 14.2937C15.0893 14.0725 15.4554 14.0725 15.6812 14.2937ZM20.2831 19.7915H13.7306C13.4112 19.7915 13.1524 19.5379 13.1524 19.2251C13.1524 18.9123 13.4112 18.6588 13.7306 18.6588H20.2831C20.6025 18.6588 20.8613 18.9123 20.8613 19.2251C20.8613 19.5379 20.6025 19.7915 20.2831 19.7915Z" fill="#5B5B5B"/>
</svg>
