<svg width="27" height="27" viewBox="0 0 27 27" fill="none" xmlns="http://www.w3.org/2000/svg">
<g clip-path="url(#clip0_1054_10)">
<path fill-rule="evenodd" clip-rule="evenodd" d="M17.6902 26.2603C18.0208 26.349 18.4238 26.349 19.2298 26.349C20.8417 26.349 21.6477 26.349 22.309 26.1718C24.1034 25.6909 25.505 24.2893 25.9859 22.4949C26.1631 21.8336 26.1631 21.0276 26.1631 19.4157V14.0373C26.1631 11.1613 26.1631 9.72324 25.4881 8.53113C24.8132 7.33901 23.5801 6.59916 21.1139 5.11942L15.8385 1.95419C14.535 1.17211 13.8833 0.781067 13.1631 0.781067C12.4429 0.781067 11.7912 1.17211 10.4877 1.95419L5.21233 5.11942C2.74611 6.59916 1.51301 7.33901 0.838046 8.53113C0.163086 9.72324 0.163086 11.1613 0.163086 14.0373V19.4157C0.163086 21.0276 0.163086 21.8336 0.340272 22.4949C0.8211 24.2893 2.22275 25.6909 4.01722 26.1718C4.67849 26.349 5.48447 26.349 7.09642 26.349C7.90239 26.349 8.30539 26.349 8.63602 26.2603C9.53325 26.0199 10.2341 25.3191 10.4745 24.4219C10.5631 24.0913 10.5631 23.6883 10.5631 22.8823V21.149C10.5631 19.9233 10.5631 19.3105 10.9438 18.9297C11.3246 18.549 11.9374 18.549 13.1631 18.549C14.3887 18.549 15.0015 18.549 15.3823 18.9297C15.7631 19.3105 15.7631 19.9233 15.7631 21.149V22.8823C15.7631 23.6883 15.7631 24.0913 15.8516 24.4219C16.0921 25.3191 16.7929 26.0199 17.6902 26.2603ZM13.1631 2.73107L13.1592 2.73139C13.1565 2.73176 13.1469 2.73322 13.1284 2.73816C13.089 2.74871 13.0111 2.77452 12.8738 2.83906C12.5678 2.98294 12.1763 3.21514 11.491 3.62631L6.2156 6.79153C4.95048 7.55062 4.12112 8.0507 3.51378 8.50034C2.94042 8.92486 2.69125 9.21581 2.53494 9.49189C2.37862 9.76797 2.25732 10.1313 2.1883 10.8414C2.1152 11.5935 2.11309 12.562 2.11309 14.0373V19.4157C2.11309 21.1531 2.12983 21.6393 2.22383 21.9901C2.52434 23.1117 3.40037 23.9877 4.52192 24.2882C4.87271 24.3822 5.35893 24.399 7.09642 24.399C7.51708 24.399 7.76753 24.3985 7.95564 24.3899C8.07404 24.3845 8.12508 24.3771 8.13766 24.3751C8.35682 24.314 8.52812 24.1427 8.5892 23.9236C8.5913 23.911 8.59864 23.8599 8.60404 23.7416C8.61262 23.5535 8.61309 23.3029 8.61309 22.8823V21.149C8.61309 21.1192 8.61307 21.0894 8.61306 21.0594C8.61285 20.5261 8.61263 19.9495 8.67807 19.4627C8.75473 18.8924 8.95191 18.1639 9.56499 17.5508C10.1781 16.9378 10.9066 16.7407 11.4768 16.664C11.9636 16.5985 12.5402 16.5987 13.0735 16.599C13.1035 16.599 13.1334 16.599 13.1631 16.599C13.1927 16.599 13.2226 16.599 13.2527 16.599C13.7859 16.5987 14.3626 16.5985 14.8493 16.664C15.4196 16.7407 16.1481 16.9378 16.7612 17.5508C17.3743 18.1639 17.5714 18.8924 17.6481 19.4627C17.7136 19.9495 17.7133 20.5261 17.7131 21.0594C17.7131 21.0894 17.7131 21.1193 17.7131 21.149V22.8823C17.7131 23.3029 17.7136 23.5535 17.7222 23.7416C17.7275 23.8599 17.7349 23.911 17.737 23.9236C17.7981 24.1427 17.9693 24.314 18.1885 24.3751C18.2011 24.3771 18.2522 24.3845 18.3705 24.3899C18.5586 24.3985 18.8091 24.399 19.2298 24.399C20.9672 24.399 21.4534 24.3822 21.8042 24.2882C22.9258 23.9877 23.8018 23.1117 24.1023 21.9901C24.1963 21.6393 24.2131 21.1531 24.2131 19.4157V14.0373C24.2131 12.562 24.211 11.5935 24.1378 10.8414C24.0688 10.1313 23.9475 9.76797 23.7912 9.49189C23.635 9.21581 23.3858 8.92486 22.8123 8.50034C22.2051 8.0507 21.3757 7.5506 20.1105 6.79153L14.8351 3.62631C14.1499 3.21514 13.7584 2.98294 13.4523 2.83906C13.3151 2.77452 13.2372 2.74871 13.1978 2.73816C13.1793 2.73322 13.1697 2.73176 13.167 2.73139L13.1631 2.73107Z" fill="#2E3192"/>
</g>
<defs>
<clipPath id="clip0_1054_10">
<rect width="26" height="26" fill="white" transform="translate(0.163086 0.349121)"/>
</clipPath>
</defs>
</svg>
