<svg width="23" height="23" viewBox="0 0 23 23" fill="none" xmlns="http://www.w3.org/2000/svg">
<g clip-path="url(#clip0_621_70)">
<path d="M5.40568 0.479126C5.59233 0.479126 5.77134 0.553274 5.90333 0.685257C6.03531 0.817241 6.10946 0.996249 6.10946 1.1829V1.88668H17.3699V1.1829C17.3699 0.996249 17.444 0.817241 17.576 0.685257C17.708 0.553274 17.887 0.479126 18.0737 0.479126C18.2603 0.479126 18.4393 0.553274 18.5713 0.685257C18.7033 0.817241 18.7774 0.996249 18.7774 1.1829V1.88668H20.185C20.9316 1.88668 21.6476 2.18327 22.1756 2.7112C22.7035 3.23914 23.0001 3.95517 23.0001 4.70178V20.1849C23.0001 20.9315 22.7035 21.6475 22.1756 22.1754C21.6476 22.7034 20.9316 23 20.185 23H3.29435C2.54774 23 1.83171 22.7034 1.30377 22.1754C0.775839 21.6475 0.479248 20.9315 0.479248 20.1849V7.51689H23.0001V6.10933H0.479248V4.70178C0.479248 3.95517 0.775839 3.23914 1.30377 2.7112C1.83171 2.18327 2.54774 1.88668 3.29435 1.88668H4.7019V1.1829C4.7019 0.996249 4.77605 0.817241 4.90804 0.685257C5.04002 0.553274 5.21903 0.479126 5.40568 0.479126Z" fill="#FFFFFF"/>
</g>
<defs>
<clipPath id="clip0_621_70">
<rect width="23" height="23" fill="white"/>
</clipPath>
</defs>
</svg>
