<svg width="13" height="13" viewBox="0 0 13 13" fill="none" xmlns="http://www.w3.org/2000/svg">
<path d="M8.22607 4.27716H6.72607V2.77716H5.97607V4.27716H4.47607V5.02716H5.97607V6.52716H6.72607V5.02716H8.22607V4.27716Z" fill="white"/>
<path d="M10.8511 4.27716H10.1011V2.02716C10.1009 1.82831 10.0218 1.63766 9.88119 1.49705C9.74058 1.35644 9.54993 1.27736 9.35107 1.27716H3.35107C3.15222 1.27736 2.96157 1.35644 2.82096 1.49705C2.68035 1.63766 2.60127 1.82831 2.60107 2.02716V4.27716H1.85107C1.65222 4.27736 1.46157 4.35644 1.32096 4.49705C1.18035 4.63766 1.10127 4.82831 1.10107 5.02716V11.7772H11.6011V5.02716C11.6009 4.82831 11.5218 4.63766 11.3812 4.49705C11.2406 4.35644 11.0499 4.27736 10.8511 4.27716ZM5.60107 11.0272V8.77716H7.10107V11.0272H5.60107ZM7.85107 11.0272V8.40216C7.85107 8.3027 7.81157 8.20732 7.74124 8.137C7.67091 8.06667 7.57553 8.02716 7.47607 8.02716H5.22607C5.12662 8.02716 5.03124 8.06667 4.96091 8.137C4.89058 8.20732 4.85107 8.3027 4.85107 8.40216V11.0272H1.85107V5.02716H3.35107V2.02716H9.35107V5.02716H10.8511V11.0272H7.85107Z" fill="white"/>
</svg>
