<svg width="14" height="12" viewBox="0 0 14 12" fill="none" xmlns="http://www.w3.org/2000/svg">
<path d="M13.5353 0H0.464727C0.341487 0.000150941 0.223338 0.0513911 0.136211 0.142475C0.0490835 0.233558 9.62347e-05 0.357044 0 0.48583V1.46319C0 1.50822 0.0467273 1.5599 0.0849091 1.5808L6.95509 5.68157C6.97269 5.69208 6.99264 5.69752 7.01291 5.69734C7.03362 5.6974 7.05398 5.69163 7.07182 5.68062L13.7344 1.58479C13.7718 1.56294 13.8711 1.50518 13.9084 1.47858C13.9535 1.44647 14 1.4174 14 1.35983V0.48564C13.9999 0.356887 13.9508 0.23345 13.8637 0.142408C13.7766 0.0513651 13.6585 0.000150854 13.5353 0Z" fill="black"/>
<path d="M13.942 2.93682C13.9241 2.92616 13.9038 2.92061 13.8832 2.92075C13.8626 2.92088 13.8425 2.92669 13.8247 2.93758L10.0543 5.25577C10.0393 5.26492 10.0265 5.27748 10.0167 5.29253C10.007 5.30758 10.0006 5.32474 9.99806 5.34271C9.99553 5.36069 9.9969 5.37903 10.0021 5.39638C10.0073 5.41373 10.0161 5.42963 10.028 5.44292L13.7989 9.69075C13.8097 9.70301 13.8228 9.71279 13.8374 9.71947C13.852 9.72614 13.8678 9.72956 13.8838 9.72951C13.9146 9.72946 13.9441 9.71665 13.9659 9.69389C13.9877 9.67113 13.9999 9.64028 14 9.6081V3.04227C14.0001 3.02091 13.9947 2.99991 13.9845 2.98139C13.9744 2.96287 13.9597 2.9475 13.942 2.93682Z" fill="black"/>
<path d="M8.96789 6.0342C8.94999 6.01383 8.92595 6.00049 8.89977 5.99641C8.8736 5.99233 8.84688 5.99775 8.82407 6.01178L7.3128 6.94107C7.22425 6.99453 7.12393 7.02301 7.02167 7.02371C6.91941 7.02441 6.81873 6.9973 6.72953 6.94506L5.39953 6.15105C5.37805 6.13827 5.35325 6.13296 5.3287 6.1359C5.30415 6.13884 5.28113 6.14987 5.26298 6.16739L0.212435 11.0629C0.199195 11.0759 0.189029 11.0919 0.182748 11.1096C0.176466 11.1274 0.174244 11.1464 0.176257 11.1653C0.17827 11.1841 0.184464 11.2022 0.194343 11.218C0.204223 11.2339 0.217516 11.2472 0.233162 11.2567C0.311708 11.305 0.387526 11.328 0.464617 11.328H13.4015C13.4242 11.328 13.4463 11.3211 13.4652 11.3081C13.4841 11.2951 13.499 11.2766 13.5079 11.2548C13.517 11.2332 13.5198 11.2093 13.5159 11.186C13.5121 11.1627 13.5019 11.1412 13.4864 11.1239L8.96789 6.0342Z" fill="black"/>
<path d="M4.15164 5.58828C4.16501 5.57535 4.1753 5.55932 4.18165 5.54148C4.18801 5.52364 4.19026 5.50449 4.18822 5.48557C4.18619 5.46665 4.17992 5.44849 4.16993 5.43257C4.15995 5.41665 4.14652 5.4034 4.13073 5.39391L0.173275 3.03183C0.155613 3.02135 0.135629 3.0159 0.115319 3.01602C0.0950103 3.01615 0.0750883 3.02184 0.057546 3.03254C0.0400038 3.04323 0.025456 3.05855 0.0153576 3.07697C0.00525915 3.09538 -3.59078e-05 3.11624 1.85395e-06 3.13747V9.33527C-0.000126286 9.35894 0.00639069 9.38213 0.0187461 9.40197C0.0311014 9.42181 0.0487528 9.43743 0.0695155 9.44689C0.0902782 9.45635 0.113241 9.45925 0.135561 9.45521C0.157881 9.45118 0.178579 9.44039 0.195093 9.42419L4.15164 5.58828Z" fill="black"/>
</svg>
