<svg width="13" height="9" viewBox="0 0 13 9" fill="none" xmlns="http://www.w3.org/2000/svg">
<path fill-rule="evenodd" clip-rule="evenodd" d="M11.5126 0.996163C11.6415 0.937614 11.7828 0.912899 11.9235 0.924263C12.0641 0.935628 12.1998 0.982712 12.3182 1.06124C12.4365 1.13976 12.5338 1.24724 12.6011 1.37391C12.6684 1.50057 12.7037 1.64241 12.7037 1.78654V6.99691C12.7037 7.14103 12.6684 7.28287 12.6011 7.40953C12.5338 7.5362 12.4365 7.64368 12.3182 7.7222C12.1998 7.80073 12.0641 7.84781 11.9235 7.85918C11.7828 7.87054 11.6415 7.84583 11.5126 7.78728C11.4874 7.77585 11.4634 7.76194 11.4408 7.74575L9.25155 6.17204C9.14053 6.09223 9.0499 5.98632 8.98735 5.86325C8.92479 5.74019 8.89212 5.60358 8.89209 5.46492V3.31852C8.89212 3.17987 8.92479 3.04325 8.98735 2.92019C9.04991 2.79712 9.14052 2.69122 9.25154 2.61141L11.4408 1.0377C11.4634 1.0215 11.4874 1.00759 11.5126 0.996163ZM11.8567 1.79656V6.98688L9.73911 5.46473L9.73911 3.31871L11.8567 1.79656Z" fill="white"/>
<path fill-rule="evenodd" clip-rule="evenodd" d="M1.7976 0.499359H6.68195L6.6826 0.499361C7.1558 0.500855 7.6092 0.693479 7.94381 1.03518C8.27842 1.37687 8.46704 1.83988 8.4685 2.32311L8.46851 2.32378V6.44666L8.4685 6.44728C8.46714 6.934 8.27719 7.40039 7.94017 7.74456C7.60314 8.08873 7.14643 8.2827 6.6698 8.2841L6.66919 8.2841H1.7976L1.797 8.2841C1.32037 8.2827 0.863659 8.08873 0.526633 7.74456C0.189607 7.40039 -0.000338278 6.934 -0.00170724 6.44728L-0.00170898 6.44666V2.3368L-0.00170724 2.33618C-0.000338278 1.84946 0.189607 1.38307 0.526633 1.0389C0.863659 0.694729 1.32037 0.500759 1.797 0.499361L1.7976 0.499359ZM1.79888 1.36433C1.54625 1.36522 1.30421 1.46809 1.12557 1.65052C0.946923 1.83295 0.846184 2.08012 0.845313 2.3381V6.44536C0.846184 6.70334 0.946923 6.9505 1.12557 7.13294C1.30422 7.31537 1.54628 7.41825 1.79891 7.41913H6.66788C6.92052 7.41825 7.16258 7.31537 7.34123 7.13294C7.51988 6.9505 7.62062 6.70331 7.62149 6.44532V2.32507C7.62053 2.07058 7.52111 1.82677 7.34487 1.6468C7.16862 1.46681 6.92983 1.36528 6.68058 1.36433H1.79888Z" fill="white"/>
</svg>
