<svg width="17" height="18" viewBox="0 0 17 18" fill="none" xmlns="http://www.w3.org/2000/svg">
    <path d="M7.96875 14.8505V9.53796H2.65625C2.51535 9.53796 2.38023 9.48199 2.2806 9.38236C2.18097 9.28274 2.125 9.14761 2.125 9.00671C2.125 8.86582 2.18097 8.73069 2.2806 8.63106C2.38023 8.53143 2.51535 8.47546 2.65625 8.47546H7.96875V3.16296C7.96875 3.02207 8.02472 2.88694 8.12435 2.78731C8.22398 2.68768 8.3591 2.63171 8.5 2.63171C8.6409 2.63171 8.77602 2.68768 8.87565 2.78731C8.97528 2.88694 9.03125 3.02207 9.03125 3.16296V8.47546H14.3438C14.4846 8.47546 14.6198 8.53143 14.7194 8.63106C14.819 8.73069 14.875 8.86582 14.875 9.00671C14.875 9.14761 14.819 9.28274 14.7194 9.38236C14.6198 9.48199 14.4846 9.53796 14.3438 9.53796H9.03125V14.8505C9.03125 14.9914 8.97528 15.1265 8.87565 15.2261C8.77602 15.3257 8.6409 15.3817 8.5 15.3817C8.3591 15.3817 8.22398 15.3257 8.12435 15.2261C8.02472 15.1265 7.96875 14.9914 7.96875 14.8505Z" fill="white"/>
</svg>
