<?xml version="1.0" encoding="UTF-8"?>
<svg version="1.1" xmlns="http://www.w3.org/2000/svg" width="512" height="512">
<path d="M0 0 C0.96594086 0.00054382 1.93188171 0.00108765 2.92709351 0.00164795 C27.00051709 0.06377163 49.60532037 3.40415633 72.6875 10.375 C73.94022705 10.75132568 73.94022705 10.75132568 75.21826172 11.13525391 C101.96506509 19.37278198 126.80877293 32.99977734 148.6875 50.375 C149.56019531 51.055625 150.43289063 51.73625 151.33203125 52.4375 C201.403267 92.31854282 232.52415118 150.21532291 240.21801758 213.59448242 C240.73750461 218.37692966 240.88193059 223.12191799 240.92578125 227.9296875 C240.93552979 228.82084259 240.94527832 229.71199768 240.95532227 230.63015747 C241.12842411 250.56261858 240.86208224 269.79528315 236.6875 289.375 C236.50558105 290.25865234 236.32366211 291.14230469 236.13623047 292.05273438 C231.90656829 312.08598685 224.86238637 331.05073846 215.46069336 349.21557617 C214.95675049 350.20920166 214.45280762 351.20282715 213.93359375 352.2265625 C213.47654053 353.10135254 213.0194873 353.97614258 212.54858398 354.87744141 C211.25462121 358.63055715 212.21585389 361.29270836 213.77462769 364.86964417 C214.45055466 366.18435951 214.45055466 366.18435951 215.14013672 367.52563477 C215.90630814 369.02858849 215.90630814 369.02858849 216.68795776 370.56190491 C217.51917648 372.17288307 217.51917648 372.17288307 218.3671875 373.81640625 C219.53549649 376.11506148 220.70345398 378.41389538 221.87109375 380.71289062 C223.71054996 384.32092349 225.55585612 387.92590563 227.40771484 391.52758789 C229.19671045 395.01428426 230.97025683 398.50851362 232.7421875 402.00390625 C233.56733353 403.59362999 233.56733353 403.59362999 234.40914917 405.21546936 C241.51669204 419.29122817 244.02873499 433.23377392 239.65234375 448.6015625 C235.54195303 460.41685567 226.81359302 470.59450542 215.6875 476.375 C207.51637751 479.87530178 200.31824928 481.52658032 191.4271698 481.50871277 C190.59861947 481.51097833 189.77006914 481.51324388 188.91641122 481.51557809 C186.14111868 481.52190566 183.36587513 481.52108947 180.59057617 481.52026367 C178.59924761 481.52325631 176.60791963 481.52665909 174.61659241 481.53044128 C169.20222347 481.53928411 163.78787033 481.54161978 158.37349486 481.54225707 C154.98170988 481.54296849 151.5899289 481.54510477 148.19814491 481.54775429 C136.33741629 481.55701522 124.47669891 481.56108906 112.6159668 481.56030273 C101.610598 481.55970476 90.60527867 481.57019936 79.59992236 481.5860464 C70.12096625 481.59920223 60.64202611 481.60448314 51.16306096 481.60384732 C45.51620804 481.60359428 39.86939889 481.60633574 34.22255516 481.61702538 C-32.24454353 481.73392411 -93.40181138 472.54349754 -147.3125 430.375 C-148.19164062 429.69050781 -149.07078125 429.00601562 -149.9765625 428.30078125 C-196.51956683 391.16248428 -228.15633514 337.32831145 -237.3125 278.375 C-237.48910156 277.25053467 -237.66570312 276.12606934 -237.84765625 274.9675293 C-239.4500906 263.66249807 -239.71174147 252.46958054 -239.6875 241.0625 C-239.68695618 240.09655914 -239.68641235 239.13061829 -239.68585205 238.13540649 C-239.64482791 222.23822306 -238.72007363 206.9554432 -235.3125 191.375 C-235.09819336 190.38886719 -234.88388672 189.40273437 -234.66308594 188.38671875 C-226.77584203 153.34760901 -211.66909769 120.52623054 -189.3125 92.375 C-188.631875 91.50230469 -187.95125 90.62960938 -187.25 89.73046875 C-150.15887768 43.16201922 -96.24228473 11.52751087 -37.3125 2.375 C-36.18803467 2.19839844 -35.06356934 2.02179687 -33.9050293 1.83984375 C-22.59999807 0.2374094 -11.40708054 -0.02424147 0 0 Z M-29.3125 46.375 C-29.97636719 46.94605469 -30.64023438 47.51710938 -31.32421875 48.10546875 C-56.10359387 70.8743469 -70.91183323 111.97099936 -76.3125 144.375 C-25.4925 144.375 25.3275 144.375 77.6875 144.375 C69.6530673 110.22866104 58.20828323 77.07544466 34.6875 50.375 C33.82898438 49.39080078 33.82898438 49.39080078 32.953125 48.38671875 C28.24010085 43.32582853 22.68207866 39.7666695 16.6875 36.375 C16.05328125 36.01019531 15.4190625 35.64539062 14.765625 35.26953125 C-0.90506715 27.88489092 -17.63762111 35.81390854 -29.3125 46.375 Z M-76.2734375 47.00488281 C-78.95946526 48.19903512 -81.64215973 49.39600864 -84.3125 50.625 C-85.3020166 51.07955566 -86.2915332 51.53411133 -87.31103516 52.00244141 C-105.9323311 60.74341588 -123.09782962 72.34166543 -138.15625 86.37109375 C-140.15951924 88.23282767 -142.21823297 89.9923116 -144.3125 91.75 C-160.51638573 105.97701168 -173.70970438 125.16940875 -183.3125 144.375 C-159.2225 144.375 -135.1325 144.375 -110.3125 144.375 C-108.6625 138.435 -107.0125 132.495 -105.3125 126.375 C-97.46596399 98.24229772 -87.09463296 72.53607738 -72.3125 47.375 C-74.26470764 46.10751086 -74.26470764 46.10751086 -76.2734375 47.00488281 Z M73.6875 46.375 C74.0278125 46.99503906 74.368125 47.61507812 74.71875 48.25390625 C75.77195502 50.17824628 76.8194774 52.10570065 77.86328125 54.03515625 C79.04642274 56.20129323 80.2510018 58.35591053 81.48046875 60.49609375 C96.1807467 86.71411524 103.99542741 115.5297278 111.6875 144.375 C135.7775 144.375 159.8675 144.375 184.6875 144.375 C174.66331645 126.83267879 164.18010631 111.18308674 150.5 96.4375 C149.94231934 95.83510498 149.38463867 95.23270996 148.81005859 94.61206055 C131.36709973 76.13356982 109.53871895 62.15549211 86.6875 51.375 C85.57246094 50.84519531 84.45742188 50.31539062 83.30859375 49.76953125 C78.68259637 47.34298641 78.68259637 47.34298641 73.6875 46.375 Z M-196.3125 176.375 C-198.89515966 182.32864591 -198.89515966 182.32864591 -200.62890625 188.34375 C-200.83580078 189.24609375 -201.04269531 190.1484375 -201.25585938 191.078125 C-201.46017578 192.00109375 -201.66449219 192.9240625 -201.875 193.875 C-202.08318359 194.76703125 -202.29136719 195.6590625 -202.50585938 196.578125 C-205.75102625 210.98300367 -206.72042858 225.04503768 -206.6875 239.75 C-206.68728851 240.62529358 -206.68707703 241.50058716 -206.68685913 242.40240479 C-207.40105717 275.29316824 -207.40105717 275.29316824 -196.3125 304.375 C-193.78708998 304.47004251 -191.28912874 304.50057158 -188.76342773 304.48852539 C-187.97324249 304.48867142 -187.18305725 304.48881744 -186.368927 304.4889679 C-183.74462178 304.48826857 -181.12038664 304.48047527 -178.49609375 304.47265625 C-176.68148335 304.47079214 -174.86687244 304.4693682 -173.05226135 304.46836853 C-168.2665977 304.46454279 -163.4809642 304.45471204 -158.6953125 304.44366455 C-153.81575936 304.43345163 -148.93620136 304.42887117 -144.05664062 304.42382812 C-134.47524714 304.41308982 -124.89387607 304.39601273 -115.3125 304.375 C-115.4014151 303.53767334 -115.4903302 302.70034668 -115.5819397 301.83764648 C-117.58460404 282.5866818 -118.79974472 263.58316615 -118.70361328 244.20898438 C-118.68749301 240.3733367 -118.70362456 236.53874201 -118.72265625 232.703125 C-118.69361125 213.61087896 -117.0567447 195.56169175 -115.3125 176.375 C-142.0425 176.375 -168.7725 176.375 -196.3125 176.375 Z M-82.3125 176.375 C-85.85255249 197.61531492 -86.68037274 218.31256178 -86.625 239.8125 C-86.62450653 241.12918671 -86.62401306 242.44587341 -86.62350464 243.80245972 C-87.53163495 274.43696514 -87.53163495 274.43696514 -82.3125 304.375 C-51.6225 304.375 -20.9325 304.375 10.6875 304.375 C15.4209375 294.80371094 15.4209375 294.80371094 20.25 285.0390625 C22.26299035 280.98239923 24.27668789 276.92611849 26.29296875 272.87109375 C29.4882885 266.44468539 32.68100791 260.01708025 35.85791016 253.58154297 C38.42138072 248.3890732 40.99677335 243.20267545 43.58029175 238.02015305 C44.56042115 236.04886831 45.53634677 234.07548727 46.50784302 232.09993362 C56.15176654 212.50208547 64.57618865 200.47585203 85.6875 192.375 C84.6975 184.455 84.6975 184.455 83.6875 176.375 C28.9075 176.375 -25.8725 176.375 -82.3125 176.375 Z M116.6875 176.375 C116.86113729 179.6066141 117.09327271 182.83148716 117.3359375 186.05859375 C117.38419678 186.97008179 117.43245605 187.88156982 117.48217773 188.82067871 C117.94509846 194.78836044 117.94509846 194.78836044 121.39453125 199.45117188 C124.26479972 201.48575226 124.26479972 201.48575226 127.3515625 203.03515625 C138.21344207 209.65163453 143.72486528 225.80793011 149.09375 236.69921875 C150.06792742 238.6569168 151.04299949 240.6141699 152.0189209 242.57099915 C154.56604508 247.68419788 157.10109191 252.80328969 159.63354492 257.92376709 C162.22749909 263.16312659 164.83300406 268.39673456 167.4375 273.63085938 C172.53206021 283.87335625 177.61386122 294.12212539 182.6875 304.375 C187.6375 304.375 192.5875 304.375 197.6875 304.375 C200.37489241 298.67114673 201.88967888 293.02004681 203.25 286.875 C203.45818359 285.98296875 203.66636719 285.0909375 203.88085938 284.171875 C207.12602625 269.76699633 208.09542858 255.70496232 208.0625 241 C208.06228851 240.12470642 208.06207703 239.24941284 208.06185913 238.34759521 C208.77605717 205.45683176 208.77605717 205.45683176 197.6875 176.375 C195.16208998 176.27995749 192.66412874 176.24942842 190.13842773 176.26147461 C189.34824249 176.26132858 188.55805725 176.26118256 187.743927 176.2610321 C185.11962178 176.26173143 182.49538664 176.26952473 179.87109375 176.27734375 C178.05648335 176.27920786 176.24187244 176.2806318 174.42726135 176.28163147 C169.6415977 176.28545721 164.8559642 176.29528796 160.0703125 176.30633545 C155.19075936 176.31654837 150.31120136 176.32112883 145.43164062 176.32617188 C135.85024714 176.33691018 126.26887607 176.35398727 116.6875 176.375 Z M84.31112385 230.17389011 C79.27410993 238.81835864 74.8535499 247.7697209 70.39331055 256.72045898 C69.46828864 258.56942837 68.54292011 260.41822438 67.61723328 262.26686096 C65.11807415 267.26035584 62.62389059 272.25632047 60.13073325 277.25281405 C57.51800323 282.48708778 54.90103145 287.71924012 52.28462219 292.95167542 C47.89657217 301.72871008 43.51161508 310.50728426 39.12866211 319.28686523 C34.05844985 329.44305033 28.98403085 339.59712447 23.90722054 349.75001281 C19.02081542 359.52221342 14.13669402 369.29555342 9.25385475 379.06953621 C7.1759492 383.22888113 5.09736229 387.3878845 3.01825523 391.54662895 C0.57447548 396.43519075 -1.86726771 401.32476443 -4.30741692 406.21513939 C-5.20450166 408.0122361 -6.10226851 409.8089925 -7.00075531 411.60538864 C-8.22369525 414.05077978 -9.44417872 416.49738109 -10.66401672 418.94432068 C-11.20213209 420.01822852 -11.20213209 420.01822852 -11.75111848 421.11383146 C-14.43572315 426.50961606 -15.72470677 430.2949501 -15.3125 436.375 C-13.46762666 441.49964816 -10.81647003 444.34348171 -6.3125 447.375 C-1.24000469 448.3733361 3.77065011 448.52345911 8.9230957 448.52217102 C9.72451398 448.52584771 10.52593225 448.5295244 11.35163593 448.5333125 C14.02219102 448.54427703 16.6927071 448.54818071 19.36328125 448.55200195 C21.2839673 448.55827175 23.20465215 448.564919 25.12533569 448.57191467 C31.41688198 448.59288468 37.70842833 448.60330598 44 448.61328125 C46.16891492 448.61733054 48.33782972 448.62144751 50.50674438 448.62563133 C60.69156122 448.64466233 70.87637087 448.65890141 81.06120205 448.6672433 C92.81215199 448.67702786 104.56291419 448.70338797 116.31379795 448.74374419 C125.40357149 448.77388975 134.49329111 448.78871044 143.58311367 448.79202431 C149.00980922 448.79437525 154.43630368 448.80334271 159.86294556 448.82848549 C164.96510089 448.85174582 170.06692238 448.8560076 175.16911697 448.84572411 C177.0399855 448.84522825 178.91087038 448.85156329 180.78168869 448.86528015 C183.33882724 448.88297876 185.89476471 448.87590357 188.4519043 448.86274719 C189.18936543 448.87371644 189.92682657 448.88468568 190.68663502 448.89598733 C196.20519949 448.82759257 199.23508545 447.40086214 203.6875 444.375 C207.02008534 440.77931582 208.49490199 438.19200056 209.01589966 433.27682495 C208.58340019 428.13815569 206.7437993 424.504933 204.43310547 419.94580078 C203.95045164 418.96573626 203.46779781 417.98567173 202.97051811 416.97590828 C201.54605996 414.09097969 200.10856723 411.21289848 198.66729259 408.33634663 C196.88683203 404.77222464 195.12576009 401.19850973 193.36138916 397.62640381 C188.18319665 387.15353193 182.97172882 376.69730834 177.7578125 366.2421875 C176.80477682 364.33074109 175.85174211 362.4192942 174.89870834 360.50784683 C170.93850937 352.56593436 166.97720171 344.62457656 163.01294136 336.68469048 C157.36487495 325.37224023 151.72370712 314.05640841 146.09175885 302.7359246 C142.10697867 294.72770565 138.11456881 286.72331973 134.11643589 278.72175896 C131.73664943 273.95853825 129.36022122 269.19371161 126.99197769 264.42473984 C124.77294364 259.95665006 122.54450458 255.49338062 120.3087368 251.03364182 C119.491363 249.39911517 118.67740445 247.76287547 117.86714745 246.12480927 C116.75984477 243.88753079 115.64033611 241.65678391 114.51760864 239.42721558 C114.20116367 238.78044353 113.88471869 238.13367149 113.55868447 237.4673003 C110.35395251 231.16847405 106.31441478 226.94462002 99.6875 224.375 C93.81440913 223.48126878 87.98721032 225.36933461 84.31112385 230.17389011 Z M-183.3125 336.375 C-182.06044367 338.5843999 -180.80622622 340.7925266 -179.55078125 343 C-179.20116333 343.61746094 -178.85154541 344.23492187 -178.49133301 344.87109375 C-170.30357669 359.2505156 -160.36062111 372.20178815 -149.125 384.3125 C-148.56731934 384.91489502 -148.00963867 385.51729004 -147.43505859 386.13793945 C-127.03978612 407.74401306 -100.79194768 423.54976303 -73.3125 434.375 C-73.3125 431.21083279 -73.67964956 430.37766115 -75.21875 427.7421875 C-75.83375366 426.67085571 -75.83375366 426.67085571 -76.46118164 425.57788086 C-77.13008423 424.42557983 -77.13008423 424.42557983 -77.8125 423.25 C-92.26084864 397.68242708 -102.2841049 369.94904663 -108.44140625 341.21875 C-108.90011794 337.60960418 -108.90011794 337.60960418 -110.3125 336.375 C-112.58241887 336.28060022 -114.85531967 336.25757774 -117.12719727 336.26147461 C-117.83935394 336.26132858 -118.55151062 336.26118256 -119.2852478 336.2610321 C-121.64983112 336.2617313 -124.01433661 336.26952394 -126.37890625 336.27734375 C-128.01415463 336.27920791 -129.64940357 336.28063182 -131.28465271 336.28163147 C-135.59684785 336.28545682 -139.90900952 336.29528725 -144.22119141 336.30633545 C-148.61815946 336.3165492 -153.01513289 336.32112901 -157.41210938 336.32617188 C-166.04558831 336.33690951 -174.67904 336.35398613 -183.3125 336.375 Z M-76.3125 336.375 C-74.82989923 344.52930423 -73.17606886 351.91443728 -70.75 359.75 C-70.40066406 360.87833252 -70.05132812 362.00666504 -69.69140625 363.16918945 C-64.26782464 380.24169159 -57.40855544 401.66048741 -44.3125 414.375 C-39.35322743 404.50271987 -34.39823313 394.62830573 -29.44874573 384.7511158 C-27.15056371 380.16520543 -24.85089383 375.58005377 -22.54785156 370.99658203 C-20.32688719 366.57632517 -18.10979491 362.15414652 -15.89541626 357.73058701 C-15.04833666 356.04013374 -14.19984522 354.3503872 -13.34994507 352.66135025 C-12.16318645 350.30227256 -10.98139487 347.94077083 -9.80078125 345.57861328 C-9.44545319 344.87514771 -9.09012512 344.17168213 -8.72402954 343.44689941 C-6.91934541 340.07541399 -6.91934541 340.07541399 -6.3125 336.375 C-29.4125 336.375 -52.5125 336.375 -76.3125 336.375 Z " fill="#2B2C42" transform="translate(255.3125,15.625)"/>
<path d="M0 0 C13.74063103 7.99382587 20.06239351 23.41977223 26.80078125 37.078125 C27.72624065 38.93585656 28.65254263 40.79316859 29.57963562 42.65008545 C32.00922822 47.52260815 34.42644872 52.40116865 36.84130859 57.28100586 C38.78576573 61.20509202 40.73898716 65.12478087 42.69267559 69.04427719 C51.52693442 86.76804113 60.32462381 104.5048967 68.80883789 122.39941406 C72.1296489 129.39781517 75.58752408 136.32719385 79.0625 143.25 C79.57482681 144.27332428 79.57482681 144.27332428 80.09750366 145.31732178 C83.92525417 152.96131375 87.78754855 160.58246647 91.8125 168.125 C96.51933994 176.98524288 101.09650831 185.91240203 105.62973022 194.86248779 C106.49096363 196.55826526 107.35644134 198.2518949 108.22647095 199.94317627 C116.73250301 216.49486607 122.29331742 231.51551671 116.96484375 250.2265625 C112.85445303 262.04185567 104.12609302 272.21950542 93 278 C84.81001414 281.50838237 77.58949753 283.14819011 68.67910767 283.15390015 C67.84420724 283.1582824 67.00930682 283.16266465 66.14910638 283.1671797 C63.35281988 283.1805287 60.55656487 283.18673788 57.76025391 283.19287109 C55.75432189 283.20077537 53.74839128 283.20904452 51.74246216 283.21765137 C45.15384269 283.24384206 38.56521698 283.25917986 31.9765625 283.2734375 C29.70444103 283.27879911 27.4323196 283.28417662 25.16019821 283.28956985 C15.70324821 283.31119761 6.2462999 283.3299312 -3.21066856 283.34119225 C-16.73965053 283.3574104 -30.26834436 283.3905378 -43.79721773 283.44759309 C-53.32189027 283.48638356 -62.84648606 283.50583593 -72.37123549 283.51111281 C-78.0531266 283.51475484 -83.73471017 283.52665328 -89.41651535 283.55921555 C-94.76986957 283.58945513 -100.12273274 283.59555155 -105.47615433 283.58383179 C-107.43074633 283.58361235 -109.38536219 283.59180834 -111.33987427 283.60948563 C-129.69781052 283.76635291 -144.00151618 280.54541626 -157.8125 267.5625 C-166.88169197 257.93978927 -170.33453597 246.94295265 -170.4375 233.875 C-170.4475708 233.05225586 -170.4576416 232.22951172 -170.46801758 231.38183594 C-170.28946029 218.66247834 -164.35145724 208.14825177 -158.74609375 197.06640625 C-157.92172191 195.42260086 -157.09800913 193.77846479 -156.2749176 192.13401794 C-154.55065046 188.69309805 -152.82127763 185.25481489 -151.08764648 181.81860352 C-148.89490951 177.47238831 -146.71057437 173.12202681 -144.52963161 168.76988316 C-142.41704785 164.5548361 -140.30061961 160.3417236 -138.18359375 156.12890625 C-137.79401426 155.35314302 -137.40443478 154.5773798 -137.00304985 153.7781086 C-132.25420875 144.33022539 -127.42378578 134.93124123 -122.46283627 125.59272099 C-119.02019357 119.09889099 -115.76650869 112.52103794 -112.58300781 105.89672852 C-103.7979589 87.6610894 -94.86806924 69.49344374 -85.87146854 51.3612833 C-84.14512664 47.88164058 -82.42291429 44.40010846 -80.71133423 40.91317749 C-79.08145191 37.59320994 -77.43961358 34.27941572 -75.7891407 30.96963882 C-74.89196689 29.1632765 -74.00671788 27.3510065 -73.12193298 25.5385437 C-65.70643256 10.74406481 -56.64257244 1.25504517 -41.40625 -5.078125 C-27.54398889 -8.82983787 -12.55221646 -6.57566636 0 0 Z M-38.37637615 31.79889011 C-43.41339007 40.44335864 -47.8339501 49.3947209 -52.29418945 58.34545898 C-53.21921136 60.19442837 -54.14457989 62.04322438 -55.07026672 63.89186096 C-57.56942585 68.88535584 -60.06360941 73.88132047 -62.55676675 78.87781405 C-65.16949677 84.11208778 -67.78646855 89.34424012 -70.40287781 94.57667542 C-74.79092783 103.35371008 -79.17588492 112.13228426 -83.55883789 120.91186523 C-88.62905015 131.06805033 -93.70346915 141.22212447 -98.78027946 151.37501281 C-103.66668458 161.14721342 -108.55080598 170.92055342 -113.43364525 180.69453621 C-115.5115508 184.85388113 -117.59013771 189.0128845 -119.66924477 193.17162895 C-122.11302452 198.06019075 -124.55476771 202.94976443 -126.99491692 207.84013939 C-127.89200166 209.6372361 -128.78976851 211.4339925 -129.68825531 213.23038864 C-130.91119525 215.67577978 -132.13167872 218.12238109 -133.35151672 220.56932068 C-133.88963209 221.64322852 -133.88963209 221.64322852 -134.43861848 222.73883146 C-137.12322315 228.13461606 -138.41220677 231.9199501 -138 238 C-136.15512666 243.12464816 -133.50397003 245.96848171 -129 249 C-123.92750469 249.9983361 -118.91684989 250.14845911 -113.7644043 250.14717102 C-112.96298602 250.15084771 -112.16156775 250.1545244 -111.33586407 250.1583125 C-108.66530898 250.16927703 -105.9947929 250.17318071 -103.32421875 250.17700195 C-101.4035327 250.18327175 -99.48284785 250.189919 -97.56216431 250.19691467 C-91.27061802 250.21788468 -84.97907167 250.22830598 -78.6875 250.23828125 C-76.51858508 250.24233054 -74.34967028 250.24644751 -72.18075562 250.25063133 C-61.99593878 250.26966233 -51.81112913 250.28390141 -41.62629795 250.2922433 C-29.87534801 250.30202786 -18.12458581 250.32838797 -6.37370205 250.36874419 C2.71607149 250.39888975 11.80579111 250.41371044 20.89561367 250.41702431 C26.32230922 250.41937525 31.74880368 250.42834271 37.17544556 250.45348549 C42.27760089 250.47674582 47.37942238 250.4810076 52.48161697 250.47072411 C54.3524855 250.47022825 56.22337038 250.47656329 58.09418869 250.49028015 C60.65132724 250.50797876 63.20726471 250.50090357 65.7644043 250.48774719 C66.50186543 250.49871644 67.23932657 250.50968568 67.99913502 250.52098733 C73.51769949 250.45259257 76.54758545 249.02586214 81 246 C84.33258534 242.40431582 85.80740199 239.81700056 86.32839966 234.90182495 C85.89590019 229.76315569 84.0562993 226.129933 81.74560547 221.57080078 C81.26295164 220.59073626 80.78029781 219.61067173 80.28301811 218.60090828 C78.85855996 215.71597969 77.42106723 212.83789848 75.97979259 209.96134663 C74.19933203 206.39722464 72.43826009 202.82350973 70.67388916 199.25140381 C65.49569665 188.77853193 60.28422882 178.32230834 55.0703125 167.8671875 C54.11727682 165.95574109 53.16424211 164.0442942 52.21120834 162.13284683 C48.25100937 154.19093436 44.28970171 146.24957656 40.32544136 138.30969048 C34.67737495 126.99724023 29.03620712 115.68140841 23.40425885 104.3609246 C19.41947867 96.35270565 15.42706881 88.34831973 11.42893589 80.34675896 C9.04914943 75.58353825 6.67272122 70.81871161 4.30447769 66.04973984 C2.08544364 61.58165006 -0.14299542 57.11838062 -2.3787632 52.65864182 C-3.196137 51.02411517 -4.01009555 49.38787547 -4.82035255 47.74980927 C-5.92765523 45.51253079 -7.04716389 43.28178391 -8.16989136 41.05221558 C-8.48633633 40.40544353 -8.80278131 39.75867149 -9.12881553 39.0923003 C-12.33354749 32.79347405 -16.37308522 28.56962002 -23 26 C-28.87309087 25.10626878 -34.70028968 26.99433461 -38.37637615 31.79889011 Z " fill="#ED2439" transform="translate(378,214)"/>
<path d="M0 0 C4.9676098 2.30639026 7.38644324 5.24121464 10 10 C10.55999822 13.0171521 10.54747701 15.96906906 10.51757812 19.03125 C10.5245874 19.91981689 10.53159668 20.80838379 10.53881836 21.72387695 C10.55636698 24.6495729 10.54478669 27.57429489 10.53125 30.5 C10.53394581 32.53971542 10.53782898 34.57942959 10.54284668 36.61914062 C10.54873749 40.88944765 10.54019207 45.1594195 10.52148438 49.4296875 C10.49869526 54.89744751 10.51182055 60.36442211 10.53577423 65.83215332 C10.55024337 70.04270319 10.54562105 74.25306752 10.53526306 78.46362305 C10.53259887 80.47941176 10.53585469 82.49521743 10.54518127 84.51098633 C10.55536511 87.33069337 10.53982006 90.14913682 10.51757812 92.96875 C10.52567505 93.79802002 10.53377197 94.62729004 10.54211426 95.48168945 C10.46471664 100.79061306 9.47949599 103.76676987 6 108 C2.18069828 111.62833663 -0.88279006 112.31000458 -6 112.5 C-11.11720994 112.31000458 -14.18069828 111.62833663 -18 108 C-22.17073234 102.92579676 -22.57898777 99.25819792 -22.51757812 92.96875 C-22.5245874 92.08018311 -22.53159668 91.19161621 -22.53881836 90.27612305 C-22.55636698 87.3504271 -22.54478669 84.42570511 -22.53125 81.5 C-22.53394581 79.46028458 -22.53782898 77.42057041 -22.54284668 75.38085938 C-22.54873749 71.11055235 -22.54019207 66.8405805 -22.52148438 62.5703125 C-22.49869526 57.10255249 -22.51182055 51.63557789 -22.53577423 46.16784668 C-22.55024337 41.95729681 -22.54562105 37.74693248 -22.53526306 33.53637695 C-22.53259887 31.52058824 -22.53585469 29.50478257 -22.54518127 27.48901367 C-22.55536511 24.66930663 -22.53982006 21.85086318 -22.51757812 19.03125 C-22.52567505 18.20197998 -22.53377197 17.37270996 -22.54211426 16.51831055 C-22.46471664 11.20938694 -21.47949599 8.23323013 -18 4 C-12.72867143 -1.00776214 -6.89190982 -0.92775709 0 0 Z " fill="#ED233A" transform="translate(358,288)"/>
<path d="M0 0 C4.8846525 2.26787438 7.73212562 5.1153475 10 10 C10.75381535 15.5997712 10.77303575 20.33499991 8.375 25.5 C3.80134327 30.3143755 0.6912538 32.25156236 -6 32.5 C-12.6912538 32.25156236 -15.80134327 30.3143755 -20.375 25.5 C-22.77303575 20.33499991 -22.75381535 15.5997712 -22 10 C-17.52212837 0.3553534 -9.85292056 -1.32635469 0 0 Z " fill="#ED233A" transform="translate(358,416)"/>
</svg>
